<svg height="32" version="1" width="32" xmlns="http://www.w3.org/2000/svg"><path d="M16 24.188c-1.625 0-3.104-.438-4.438-1.312-1.334-.875-2.334-2-3-3.375L2 8c-1.375 2.459-2 5.209-2 8 0 4 1.302 7.49 3.906 10.469 2.604 2.979 5.844 4.76 9.719 5.344l4.641-8.031c-.467.137-1.246.406-2.266.406z" fill="#4AAE48"/><path d="M10.969 9.531C12.447 8.386 14.125 8 16 8h13.75c-1.417-2.416-3.344-4.458-5.781-5.875C21.531.709 18.875 0 16 0c-2.5 0-4.834.531-7 1.594-2.167 1.062-4.172 2.609-5.641 4.594L8 14c.458-1.791 1.489-3.322 2.969-4.469z" fill="#EA3939"/><path d="M30.797 10H21.5c1.625 1.625 2.688 3.709 2.688 6a8.183 8.183 0 0 1-1.438 4.688L16.188 32c4.375-.042 8.104-1.625 11.188-4.75C30.458 24.125 32 20.375 32 16c0-2.041-.344-4.188-1.203-6z" fill="#FED14B"/><circle cx="16" cy="16" fill="#188FD1" r="6"/></svg>