<svg viewBox="0 0 24 24" xmlns="http://www.w3.org/2000/svg"><radialGradient cx="6.438" cy="-.563" gradientUnits="userSpaceOnUse" id="a" r="21.084"><stop offset="0" stop-color="#15bef0"/><stop offset=".268" stop-color="#0d91ce"/><stop offset=".53" stop-color="#066db1"/><stop offset=".742" stop-color="#0257a0"/><stop offset=".878" stop-color="#004e9a"/></radialGradient><circle cx="12" cy="12" fill="url(#a)" r="12"/><linearGradient gradientUnits="userSpaceOnUse" id="b" x1="12" x2="12" y2="23.729"><stop offset="0" stop-opacity="0"/><stop offset="1" stop-opacity=".4"/></linearGradient><circle cx="12" cy="11.865" fill="url(#b)" r="11.865"/><path d="M20.666 6.883l-.482-.084.372-.592c-.001-.003-.76.479-.761.476-.132-.293-.479-.165-.708-.314.07-.109.097-.222.141-.308.067-.129.302-.34.262-.458l.05-.296.083-.18-.506-.036-.28-.058-.336-.133-.052.6-.13.13-.008-.007c-.294-.218-.421-.774-.781-.645-.36.129-.499-.2-.957.009-.458.208-.355.071-.536.287-.18.217-.13.564-.158.783-.026.196-.169.477-.138.693-.029-.008-.056-.012-.087-.023-.223-.085-.114-.304-.361-.393-.152-.054-.148.189-.093.45a.753.753 0 0 1-.374.161c-.236.035-.248-.209-.507-.166-.259.042.224.573.476.755.252.182.318.643.664.54a.572.572 0 0 1 .356.01c.193.114.235.313.62.37.194.029.28.053.336.067l.016.022.228.478.255-.683c.03-.03.05-.059.077-.091.105.43.24.982.236.982-.542.054-.523.68-.886.968-.137-.17-.304-.276-.417-.393-.172-.177-.383-.668-.595-.668l-.449-.24-.244-.23-.33.794-.245.417-.396.47.938.407.138.278-.016.01c-.508.354-1.47.26-1.458.906.013.648-.588.694-.5 1.542.086.848-.079.61.172 1.016s.835.513 1.172.677c.3.146.675.527 1.038.595-.027.042-.049.084-.084.126-.256.313-.549.021-.825.37-.17.214.223.339.671.39.007.016.129.301.06.688-.072.398-.47.286-.542.725-.071.439 1.041-.05 1.47-.357.429-.306 1.204-.163 1.225-.776.009-.263.104-.415.208-.566.288-.249.63-.21.928-.796.151-.297.237-.423.29-.503l.044-.014.89-.109-.96-.778c-.105-.207-.247-.39-.331-.55-.083-.157-.139-.404-.22-.622.125-.025.244-.1.356-.291.317-.54.599-.395.983-1.125.385-.73.337-.482.431-.895s-.104-.68-.168-.918c-.064-.239-.01-.77-.194-.873l-.275-.429.029-.126c.212-.04.326-.176.439-.25.121-.08.429-.15.452-.272l.188-.235.21-.02.008-.327.108-.296-.23-.066zm-3.172 1.19l.021-.024c.073-.076.2-.153.307-.24.037.065.101.118.23.145a.757.757 0 0 1 .258.103l-.33.61-.486-.593z" opacity=".1"/><radialGradient cx="17.625" cy="5.442" gradientTransform="matrix(-.78544 .61894 -.6327 -.80289 34.911 -1.098)" gradientUnits="userSpaceOnUse" id="c" r="16.65"><stop offset="0" stop-color="#fff203"/><stop offset=".298" stop-color="#fbc40d"/><stop offset=".777" stop-color="#f47e1c"/><stop offset="1" stop-color="#f26322"/></radialGradient><path d="M24 11.98C24 18.604 18.626 24 12 24S0 18.605 0 11.98c0-2.13.563-4.133 1.534-5.865-.616-.877-.835-2.609.553-4.049 0 .553.334 1.503.71 2.212.302.564.626.972.855.919.523-.123 2.348-.126 2.609 0 .428-.554 1.471-2.087 3.13-2.087-.928.928-3.59 4.173 1.044 4.173h1.043L8.348 9.37s.355.69 0 1.044c-.397-.397-2.087.428-2.087 1.565s1.21 2.609 3.652 2.609 1.826-1.044 3.13-1.044 1.566 1.044 1.566 1.044c-1.795 0-3.1 2.087-5.218 2.087 1.044.772 1.732 1.043 3.13 1.043a6.266 6.266 0 0 0 6.262-6.26c0-1.399-.46-2.682-1.232-3.726a6.293 6.293 0 0 1 2.505 4.477 9.32 9.32 0 0 0 .292-2.317c0-3.13-1.252-7.325-3.558-8.911A11.984 11.984 0 0 1 24 11.979z" fill="url(#c)"/><path d="M6.26 11.98c0-1.138 1.691-1.963 2.088-1.566.29-.29.107-.8.03-.976a.546.546 0 0 1-.146.295c-.41-.41-2.154.441-2.154 1.615 0 .274.075.566.212.854-.01-.074-.03-.15-.03-.223z" opacity=".1"/><linearGradient gradientUnits="userSpaceOnUse" id="d" x1="14.86" x2="22.049" y1="5.119" y2="8.471"><stop offset="0" stop-color="#fff" stop-opacity=".5"/><stop offset="1" stop-color="#fff" stop-opacity=".2"/></linearGradient><path d="M20.348 9.892c0 .438-.093 1.684-.29 2.316.022.134.047.267.06.404.194-.753.495-2.589.495-3.417 0-2.267-.638-5.07-1.84-7.109A11.966 11.966 0 0 0 16.79.981c2.306 1.586 3.558 5.78 3.558 8.911z" fill="url(#d)"/><linearGradient gradientUnits="userSpaceOnUse" id="e" x1="16.585" x2="19.489" y1="9.805" y2="11.16"><stop offset="0" stop-color="#fff" stop-opacity=".5"/><stop offset="1" stop-color="#fff" stop-opacity=".2"/></linearGradient><path d="M17.551 7.732a6.232 6.232 0 0 1 .972 5.501c.304-.75.475-1.566.475-2.424 0-.69-.115-1.353-.316-1.975a6.292 6.292 0 0 0-1.13-1.102z" fill="url(#e)"/><path d="M14.609 14.588s-.065-.246-.277-.5c-1.67.251-3.514 2.17-5.554 2.17.219.162.421.297.62.418 1.823.086 3.574-2.088 5.21-2.088zM2.202 2.754c-.066-.256-.115-.499-.115-.688-.038.04-.062.081-.098.12.061.188.135.38.213.568zM1.177 5.347c.01-.016.015-.034.024-.05-.021-.03-.038-.07-.059-.103.012.051.02.104.035.153zM12 23.73a12.442 12.442 0 0 1-9.573-4.493C4.62 22.11 8.108 24 12 24s7.354-1.854 9.547-4.726c-2.271 2.738-5.712 4.455-9.547 4.455zM10.3 7.277l-2.068 1.38s.176.35.157.686l3.09-2.06h-1.044c-.05 0-.087-.005-.135-.006zM7.819 6.184C7.66 4.964 8.906 3.595 9.39 3.11a2.68 2.68 0 0 0-1.023.212c-.533.766-.945 2.206-.55 2.862z" opacity=".1"/><linearGradient gradientUnits="userSpaceOnUse" id="f" x1="-.14" x2="22.875" y1="6.33" y2="17.062"><stop offset="0" stop-color="#fff" stop-opacity=".2"/><stop offset="1" stop-color="#fff" stop-opacity="0"/></linearGradient><path d="M16.79.98c.039.028.076.062.114.09A11.84 11.84 0 0 0 2.83 4.336c-.01-.02-.022-.037-.033-.058-.376-.71-.71-1.659-.71-2.212C.699 3.506.918 5.238 1.534 6.115A11.978 11.978 0 0 0 0 11.979C0 18.605 5.374 24 12 24s12-5.395 12-12.02c0-4.926-2.964-9.152-7.21-11z" fill="url(#f)"/></svg>