<svg height="32" version="1" width="32" xmlns="http://www.w3.org/2000/svg"><path d="M11.466 18.942v.064c0 1.051.24 2.06.725 3.022a6.436 6.436 0 0 0 2.336 2.397c.987.59 2.084.886 3.29.886s2.305-.296 3.292-.886a6.463 6.463 0 0 0 2.335-2.397h7.833c-1.011 2.847-2.765 5.179-5.265 6.994-2.502 1.817-5.311 2.726-8.425 2.726a14.79 14.79 0 0 1-6.581-1.511c-4.607 2.234-7.92 2.343-9.938.329C.365 29.91.015 28.815.015 27.282c0-1.532.296-3.24.889-5.123.592-1.882 1.579-3.952 2.962-6.207a31.582 31.582 0 0 1 4.902-6.141c1.097-1.139 1.799-1.84 2.105-2.102-2.721 1.312-5.178 3.35-7.37 6.107.789-3.196 2.49-5.823 5.1-7.882 2.61-2.058 5.605-3.087 8.984-3.087.351 0 .701.022 1.052.065 2.458-1.095 4.695-1.707 6.714-1.839 2.018-.132 3.443.197 4.277.985 1.667 1.708 1.821 4.379.461 8.013A14.383 14.383 0 0 1 32 17.3c0 .613-.022 1.16-.065 1.643H11.466zm-1.381 10.772c-2.939-1.795-5.003-4.312-6.188-7.554-1.974 3.854-2.237 6.503-.79 7.948 1.273 1.27 3.598 1.138 6.978-.394zm13.557-14.581c-.088-1.577-.724-2.923-1.908-4.04-1.185-1.116-2.578-1.675-4.179-1.675-1.603 0-2.995.559-4.179 1.675-1.186 1.117-1.822 2.463-1.91 4.04h12.176zm-.724-11.232c2.807 1.138 5.045 2.977 6.712 5.517 1.01-2.715.965-4.619-.131-5.715-1.185-1.225-3.379-1.159-6.581.198z" fill="#188FD1"/></svg>