<svg viewBox="0 0 24 24" xmlns="http://www.w3.org/2000/svg"><linearGradient gradientUnits="userSpaceOnUse" id="a" x1="12" x2="12" y1=".5" y2="23.5"><stop offset="0" stop-color="#15bef0"/><stop offset=".155" stop-color="#18b2e8"/><stop offset=".432" stop-color="#2094d2"/><stop offset=".797" stop-color="#2e62af"/><stop offset="1" stop-color="#374499"/></linearGradient><circle cx="12" cy="12" fill="url(#a)" r="11.5"/><linearGradient gradientUnits="userSpaceOnUse" id="b" x1="12" x2="20.132" y1="12" y2="20.132"><stop offset="0" stop-opacity=".1"/><stop offset="1" stop-opacity="0"/></linearGradient><path d="M23.5 12c0-.996-.14-1.956-.378-2.878L19 5l-5.5 8.5L5 19l4.122 4.122A11.48 11.48 0 0 0 12 23.5c6.351 0 11.5-5.149 11.5-11.5z" fill="url(#b)"/><path d="M12 24C5.383 24 0 18.617 0 12S5.383 0 12 0s12 5.383 12 12-5.383 12-12 12zm0-23C5.935 1 1 5.935 1 12s4.935 11 11 11 11-4.935 11-11S18.065 1 12 1z" fill="#F2F2F2"/><path fill="#EF373E" d="M19 5l-8.5 5.5 3 3z"/><path opacity=".1" d="M19 5l-7 7 1.5 1.5z"/><path fill="#FFF" d="M5 19l8.5-5.5-3-3z"/><path opacity=".1" d="M5 19l7-7 1.5 1.5z"/><path d="M12 23.75A12.053 12.053 0 0 1 .193 14.153 11.996 11.996 0 0 0 12 24a11.965 11.965 0 0 0 11.492-8.52c.126-.422.23-.854.309-1.294-.07.343-.156.68-.255 1.011C22.063 20.164 17.454 23.75 12 23.75z" opacity=".1"/><path d="M12 .25c5.406 0 9.98 3.533 11.517 8.403C22.067 3.656 17.465 0 12 0S1.933 3.656.483 8.653A12.067 12.067 0 0 1 12 .25z" fill="#FFF" opacity=".2"/><linearGradient gradientUnits="userSpaceOnUse" id="c" x1="1.122" x2="22.878" y1="6.927" y2="17.073"><stop offset="0" stop-color="#fff" stop-opacity=".2"/><stop offset="1" stop-color="#fff" stop-opacity="0"/></linearGradient><circle cx="12" cy="12" fill="url(#c)" r="12"/></svg>